<?xml version="1.0" standalone="no"?><!DOCTYPE svg PUBLIC "-//W3C//DTD SVG 1.1//EN" "http://www.w3.org/Graphics/SVG/1.1/DTD/svg11.dtd"><svg t="1511101522968" class="icon" style="" viewBox="0 0 1024 1024" version="1.1" xmlns="http://www.w3.org/2000/svg" p-id="3687" xmlns:xlink="http://www.w3.org/1999/xlink" width="200" height="200"><defs><style type="text/css"></style></defs><path d="M355.467551 473.588081c12.758023-17.971828 20.025751-42.658405 20.025751-67.779465 0-25.081562-7.267728-49.768139-20.025751-67.700469-13.350501-18.801297-32.072801-29.663391-51.545573-29.702889h-0.157994c-19.354276 0-38.116075 10.7041-51.506074 29.307904-12.797521 17.892831-20.262742 42.500411-20.341739 68.687932 0.078997 25.081562 7.544218 49.689142 20.341739 67.581973 13.389999 18.643303 32.112299 29.307904 51.506074 29.307904h0.197493c19.393775-0.078997 38.155573-10.901592 51.506074-29.70289z m155.62418 123.116897a232.646301 232.646301 0 0 0-199.704532 112.84728 40.091001 40.091001 0 0 0 43.882859 59.524274c10.388112-2.567404 19.117285-9.005663 24.647078-18.16932a152.187809 152.187809 0 0 1 131.214094-74.217725c55.416428 0 106.685511 30.137373 133.781498 78.523064a40.091001 40.091001 0 0 0 54.468463 15.404424c9.282153-5.253304 16.0364-13.745486 18.919792-24.015102a39.617019 39.617019 0 0 0-3.594365-30.453362 233.791758 233.791758 0 0 0-203.614887-119.443533z m472.520832-283.994381a510.320918 510.320918 0 0 0-109.608402-162.733915 509.925933 509.925933 0 0 0-162.733915-109.687399A508.109 508.109 0 0 0 512.000197 0.00079C442.917281 0.00079 375.927786 13.548783 312.769647 40.289283a508.66198 508.66198 0 0 0-162.694416 109.687399A510.320918 510.320918 0 0 0 0.138837 512.020144a510.755402 510.755402 0 0 0 149.936394 362.043463 510.162924 510.162924 0 0 0 361.924966 149.936393c69.082917 0 136.11191-13.508495 199.270049-40.248995a511.426876 511.426876 0 0 0 162.733915-109.687398 509.925933 509.925933 0 0 0 109.608402-162.733915 507.714015 507.714015 0 0 0 40.288493-199.309548 508.306493 508.306493 0 0 0-40.288493-199.309547z m-471.612366 631.265395c-238.097097 0-431.837352-193.779754-431.837352-431.995346S273.903101 80.024798 512.000197 80.024798c238.176094 0 431.876851 193.779754 431.876852 431.995346s-193.700757 431.955848-431.876852 431.955848z m205.510816-635.570734h-0.197493c-19.354276 0-38.116075 10.7041-51.506074 29.307904-12.797521 17.853332-20.262742 42.500411-20.341739 68.687932 0.078997 25.081562 7.504719 49.689142 20.341739 67.581973 13.389999 18.643303 32.112299 29.307904 51.506074 29.307904h0.197493c19.393775-0.078997 38.195072-10.901592 51.545572-29.742388 12.718524-17.932329 19.986253-42.618906 19.986253-67.739967 0-25.081562-7.267728-49.768139-19.986253-67.739967-13.350501-18.761798-32.151798-29.623892-51.545572-29.663391z" p-id="3688"></path></svg>