<?xml version="1.0" standalone="no"?><!DOCTYPE svg PUBLIC "-//W3C//DTD SVG 1.1//EN" "http://www.w3.org/Graphics/SVG/1.1/DTD/svg11.dtd"><svg t="1511101641067" class="icon" style="" viewBox="0 0 1024 1024" version="1.1" xmlns="http://www.w3.org/2000/svg" p-id="6920" xmlns:xlink="http://www.w3.org/1999/xlink" width="200" height="200"><defs><style type="text/css"></style></defs><path d="M960.063357 234.666667C971.810441 234.666667 981.333333 244.208147 981.333333 255.936643L981.333333 384.063357C981.333333 395.810441 971.791853 405.333333 960.063357 405.333333L831.936643 405.333333C820.189559 405.333333 810.666667 395.791853 810.666667 384.063357L810.666667 255.936643C810.666667 244.189559 820.208147 234.666667 831.936643 234.666667L960.063357 234.666667ZM640 160 714.666667 160 714.666667 234.666667 640 234.666667 640 160 640 160 640 160 640 160ZM832 565.246765C832 553.5125 822.470429 544 810.753235 544L693.246765 544C681.5125 544 672 534.458519 672 522.730023L672 394.60331C672 382.856226 662.458519 373.333333 650.730023 373.333333L522.60331 373.333333C510.856226 373.333333 501.333333 363.791853 501.333333 352.063357L501.333333 223.936643C501.333333 212.189559 491.764692 202.666667 479.937507 202.666667L373.395826 202.666667C361.579237 202.666667 342.470429 202.666667 330.753235 202.666667L213.246765 202.666667C201.5125 202.666667 182.431359 202.666667 170.604174 202.666667L64.062492 202.666667C52.245904 202.666667 42.666667 212.208147 42.666667 223.936643L42.666667 352.063357C42.666667 363.810441 42.666667 382.874814 42.666667 394.60331L42.666667 522.730023C42.666667 534.477107 42.666667 553.529571 42.666667 565.246765L42.666667 682.753235C42.666667 694.4875 42.666667 713.541481 42.666667 725.269977L42.666667 853.39669C42.666667 865.143774 52.235308 874.666667 64.062492 874.666667L170.604174 874.666667C182.420763 874.666667 201.529571 874.666667 213.246765 874.666667L330.753235 874.666667C342.4875 874.666667 361.568641 874.666667 373.395826 874.666667L479.937507 874.666667C491.754096 874.666667 510.874814 874.666667 522.60331 874.666667L650.730023 874.666667C662.477107 874.666667 681.529571 874.666667 693.246765 874.666667L810.753235 874.666667C822.4875 874.666667 841.568641 874.666667 853.395826 874.666667L959.937507 874.666667C971.754096 874.666667 981.333333 865.125186 981.333333 853.39669L981.333333 725.269977C981.333333 713.522893 971.764692 704 959.937507 704L853.395826 704C841.579237 704 832 694.470429 832 682.753235L832 565.246765Z" p-id="6921"></path></svg>