<?xml version="1.0" standalone="no"?><!DOCTYPE svg PUBLIC "-//W3C//DTD SVG 1.1//EN" "http://www.w3.org/Graphics/SVG/1.1/DTD/svg11.dtd"><svg t="1511101537089" class="icon" style="" viewBox="0 0 1024 1024" version="1.1" xmlns="http://www.w3.org/2000/svg" p-id="4358" xmlns:xlink="http://www.w3.org/1999/xlink" width="200" height="200"><defs><style type="text/css"></style></defs><path d="M512 16C238.048 16 16 238.032 16 512c0 273.952 222.048 496 496 496 273.984 0 496-222.048 496-496C1008 238.032 785.984 16 512 16zM512 930.56C280.784 930.56 93.424 743.2 93.424 512 93.424 280.816 280.784 93.424 512 93.424c231.152 0 418.56 187.392 418.56 418.576C930.56 743.2 743.152 930.56 512 930.56z" p-id="4359"></path><path d="M512.224 815.808C309.104 815.808 273.28 640 273.28 640l485.056 0C758.336 640 721.872 815.808 512.224 815.808z" p-id="4360"></path><path d="M334.864 320.512c92.288 0 132.704 111.328 132.704 111.328l-32.768 19.984c0 0-17.024-57.792-99.936-57.792-77.504 0-103.168 57.792-103.168 57.792l-29.472-25.28C202.24 426.528 250.256 320.512 334.864 320.512z" p-id="4361"></path><path d="M671.088 320.512c92.288 0 132.656 111.328 132.656 111.328l-32.832 19.984c0 0-16.944-57.792-99.824-57.792-77.568 0-103.28 57.792-103.28 57.792l-29.344-25.28C538.464 426.528 586.48 320.512 671.088 320.512z" p-id="4362"></path></svg>