<?xml version="1.0" standalone="no"?><!DOCTYPE svg PUBLIC "-//W3C//DTD SVG 1.1//EN" "http://www.w3.org/Graphics/SVG/1.1/DTD/svg11.dtd"><svg t="1511101593867" class="icon" style="" viewBox="0 0 1118 1024" version="1.1" xmlns="http://www.w3.org/2000/svg" p-id="5028" xmlns:xlink="http://www.w3.org/1999/xlink" width="218.359375" height="200"><defs><style type="text/css"></style></defs><path d="M837.787152 0 279.272727 0C125.610667 0 0 125.703758 0 279.272727l0 186.181818c0 153.56897 125.610667 279.272727 279.272727 279.272727l46.514424 0 0 279.272727 319.115636-279.272727 192.884364 0c153.6 0 279.272727-125.703758 279.272727-279.272727L1117.059879 279.272727C1117.059879 125.703758 991.387152 0 837.787152 0M279.241697 465.454545c-51.417212 0-93.090909-41.704727-93.090909-93.090909s41.673697-93.090909 93.090909-93.090909c51.355152 0 93.090909 41.704727 93.090909 93.090909S330.596848 465.454545 279.241697 465.454545M558.514424 465.454545c-51.417212 0-93.090909-41.704727-93.090909-93.090909s41.673697-93.090909 93.090909-93.090909 93.090909 41.704727 93.090909 93.090909S609.931636 465.454545 558.514424 465.454545M837.787152 465.454545c-51.448242 0-93.090909-41.704727-93.090909-93.090909s41.642667-93.090909 93.090909-93.090909c51.355152 0 93.090909 41.704727 93.090909 93.090909S889.142303 465.454545 837.787152 465.454545" p-id="5029"></path></svg>