<?xml version="1.0" standalone="no"?><!DOCTYPE svg PUBLIC "-//W3C//DTD SVG 1.1//EN" "http://www.w3.org/Graphics/SVG/1.1/DTD/svg11.dtd"><svg t="1510328345513" class="icon" style="" viewBox="0 0 1024 1024" version="1.1" xmlns="http://www.w3.org/2000/svg" p-id="3687" xmlns:xlink="http://www.w3.org/1999/xlink" width="200" height="200"><defs><style type="text/css"></style></defs><path d="M512 0C229.656 0 0 229.672 0 512c0 282.313 229.656 512 512 512s512-229.688 512-512C1024 229.672 794.344 0 512 0zM512 950.531c-241.797 0-438.531-196.75-438.531-438.531C73.469 270.203 270.203 73.469 512 73.469c241.781 0 438.531 196.734 438.531 438.531C950.531 753.781 753.781 950.531 512 950.531zM694.813 512 512 512 512 256.078c0-20.297-16.266-36.719-36.578-36.719-20.297 0-36.563 16.469-36.563 36.719l0 292.484c0 20.281 16.297 36.594 36.563 36.594l219.391 0c20.344 0 36.719-16.313 36.719-36.594S715.156 512 694.813 512z" p-id="3688"></path></svg>