<?xml version="1.0" standalone="no"?><!DOCTYPE svg PUBLIC "-//W3C//DTD SVG 1.1//EN" "http://www.w3.org/Graphics/SVG/1.1/DTD/svg11.dtd"><svg t="1510328421866" class="icon" style="" viewBox="0 0 1025 1024" version="1.1" xmlns="http://www.w3.org/2000/svg" p-id="6169" xmlns:xlink="http://www.w3.org/1999/xlink" width="200.1953125" height="200"><defs><style type="text/css"></style></defs><path d="M722.943 406.535c-29.109 0-52.733 23.626-52.733 52.733 0 29.114 23.626 52.74 52.733 52.74 29.114 0 52.738-23.626 52.738-52.74 0.001-29.108-23.625-52.733-52.738-52.733zM512.007 775.683c-30.799 0-60.539-3.59-89.126-9.682l-124.136 74.621 1.661-122.318c-95.16-57.217-157.547-151.826-157.547-259.038 0-174.733 165.271-316.409 369.147-316.409 203.872-0.001 369.144 141.673 369.144 316.408 0 174.767-165.271 316.414-369.142 316.414z m0-685.557c-232.986 0-421.882 165.299-421.882 369.143 0 116.521 61.831 220.275 158.208 287.908v186.708l184.808-112.139c25.576 4.217 51.889 6.671 78.866 6.671 232.98 0 421.878-165.271 421.878-369.147 0-203.843-188.896-369.143-421.877-369.143zM301.066 406.535c-29.109 0-52.733 23.626-52.733 52.733 0 29.114 23.625 52.74 52.733 52.74 29.108 0 52.733-23.626 52.733-52.74 0-29.108-23.626-52.733-52.733-52.733z m210.941 0c-29.114 0-52.74 23.626-52.74 52.733 0 29.114 23.626 52.74 52.74 52.74 29.109 0 52.733-23.626 52.733-52.74 0-29.108-23.626-52.733-52.733-52.733z m0 0z" p-id="6170"></path></svg>