<?xml version="1.0" standalone="no"?><!DOCTYPE svg PUBLIC "-//W3C//DTD SVG 1.1//EN" "http://www.w3.org/Graphics/SVG/1.1/DTD/svg11.dtd"><svg t="1510712709190" class="icon" style="" fill="#fff" viewBox="0 0 1024 1024" version="1.1" xmlns="http://www.w3.org/2000/svg" p-id="2548" xmlns:xlink="http://www.w3.org/1999/xlink" width="200" height="200"><defs><style type="text/css"></style></defs><path d="M686.67392 611.011584c-52.933632 0-98.456576 29.651968-122.31168 72.94976l-122.986496-81.170432c22.238208-24.80128 36.120576-57.214976 36.120576-93.1328 0-16.81408-3.436544-32.684032-8.861696-47.61088l118.436864-90.673152c25.406464 25.675776 60.61568 41.613312 99.602432 41.613312 77.430784 0 140.17024-62.739456 140.17024-140.17024 0-77.430784-62.739456-140.171264-140.17024-140.171264-77.42976 0-140.171264 62.74048-140.171264 140.171264 0 21.327872 5.121024 41.344 13.68064 59.437056l-115.437568 88.347648c-25.710592-30.964736-64.021504-51.115008-107.419648-51.115008-77.430784 0-140.17024 62.74048-140.17024 140.171264s62.739456 140.169216 140.17024 140.169216c23.384064 0 45.083648-6.264832 64.49152-16.37376l146.774016 96.90624c-1.010688 6.84032-2.08896 13.679616-2.08896 20.824064 0 77.42976 62.741504 140.169216 140.171264 140.169216 77.430784 0 140.17024-62.739456 140.17024-140.169216C826.84416 673.752064 764.104704 611.011584 686.67392 611.011584z" p-id="2549"></path></svg>