<?xml version="1.0" standalone="no"?><!DOCTYPE svg PUBLIC "-//W3C//DTD SVG 1.1//EN" "http://www.w3.org/Graphics/SVG/1.1/DTD/svg11.dtd"><svg t="1510127158696" class="icon" style="" viewBox="0 0 1024 1024" version="1.1" xmlns="http://www.w3.org/2000/svg" p-id="2513" xmlns:xlink="http://www.w3.org/1999/xlink" width="200" height="200"><defs><style type="text/css"></style></defs><path d="M566.778604 506.542708c-9.553587 0-19.111267 8.870018-19.111267 19.794835 0 8.870018 9.553587 17.744129 19.111267 17.744129 14.338566 0 24.575722-8.874111 24.575722-17.744129C591.354326 515.416819 581.117171 506.542708 566.778604 506.542708L566.778604 506.542708 566.778604 506.542708zM503.981373 414.385798c15.018042 0 24.574698-9.553587 24.574698-23.892153 0-15.018042-9.556657-23.89113-24.574698-23.89113-14.334473 0-27.989471 8.873088-27.989471 23.89113C475.991901 404.836305 489.646899 414.385798 503.981373 414.385798L503.981373 414.385798 503.981373 414.385798zM511.488347 87.911212c-231.391021 0-418.972257 187.580213-418.972257 418.971234 0 231.392044 187.581236 418.972257 418.972257 418.972257s418.971234-187.580213 418.971234-418.972257C930.45958 275.491425 742.883461 87.911212 511.488347 87.911212L511.488347 87.911212 511.488347 87.911212zM432.305937 613.031021c-25.25929 0-43.691081-4.093225-67.582211-10.924817l-68.945255 34.81697 19.801998-58.7081c-48.466851-34.125215-77.138868-77.131705-77.138868-129.696898 0-92.836385 87.376023-163.828252 193.864336-163.828252 94.199429 0 178.166819 55.973826 194.547905 135.164423-6.827499-1.37123-12.971429-2.050706-18.431791-2.050706-92.836385 0-164.507728 69.62473-164.507728 153.588027 0 14.33345 2.046612 27.304879 5.459339 40.959877C443.914322 613.031021 437.766298 613.031021 432.305937 613.031021L432.305937 613.031021 432.305937 613.031021zM716.961068 679.92557l13.649881 49.15042-51.880601-29.351492c-19.793812 4.093225-38.909172 10.237155-58.704007 10.237155-91.470271 0-163.829276-62.798255-163.829276-140.616598 0-77.819366 72.359005-140.620691 163.829276-140.620691 86.693478 0 164.512844 62.801325 164.512844 140.620691C784.539186 613.031021 755.186671 651.936099 716.961068 679.92557L716.961068 679.92557 716.961068 679.92557zM368.821043 366.602515c-14.334473 0-29.352515 8.873088-29.352515 23.89113 0 14.338566 15.018042 23.896246 29.352515 23.896246 13.653975 0 24.574698-9.55768 24.574698-23.896246C393.395742 375.475604 382.475018 366.602515 368.821043 366.602515L368.821043 366.602515 368.821043 366.602515zM673.953555 506.542708c-10.240225 0-19.114336 8.870018-19.114336 19.794835 0 8.870018 8.874111 17.744129 19.114336 17.744129 13.650905 0 23.892153-8.874111 23.892153-17.744129C697.845709 515.416819 687.60446 506.542708 673.953555 506.542708L673.953555 506.542708 673.953555 506.542708zM673.953555 506.542708" fill="#069528" p-id="2514"></path></svg>