<?xml version="1.0" standalone="no"?><!DOCTYPE svg PUBLIC "-//W3C//DTD SVG 1.1//EN" "http://www.w3.org/Graphics/SVG/1.1/DTD/svg11.dtd"><svg t="1520265300640" class="icon" style="" viewBox="0 0 1024 1024" version="1.1" xmlns="http://www.w3.org/2000/svg" p-id="1375" xmlns:xlink="http://www.w3.org/1999/xlink" width="200" height="50"><defs><style type="text/css"></style></defs><path d="M827.392 256V133.632H896V0H128v133.632h68.608V256a327.168 327.168 0 0 0 124.416 256 327.168 327.168 0 0 0-124.416 256v120.832H128V1024h768v-133.632h-68.608V768a327.168 327.168 0 0 0-124.416-256 327.168 327.168 0 0 0 124.416-256z m-129.536 512v120.832H326.144V768a188.416 188.416 0 0 1 185.856-189.44 188.416 188.416 0 0 1 185.856 189.44zM326.144 256V133.632h371.712V256A188.416 188.416 0 0 1 512 445.44 188.416 188.416 0 0 1 326.144 256z" p-id="1376" fill="#88bfd4"></path></svg>