<?xml version="1.0" standalone="no"?><!DOCTYPE svg PUBLIC "-//W3C//DTD SVG 1.1//EN" "http://www.w3.org/Graphics/SVG/1.1/DTD/svg11.dtd"><svg t="1510127096324" class="icon" style="" viewBox="0 0 1024 1024" version="1.1" xmlns="http://www.w3.org/2000/svg" p-id="1443" xmlns:xlink="http://www.w3.org/1999/xlink" width="200" height="200"><defs><style type="text/css"></style></defs><path d="M465.594 504.249c-101.005 4.66-182.695 58.77-182.695 126.28 0 67.43 81.69 118.09 182.695 113.36 101.115-4.59 182.945-67.87 182.945-135.28-0.001-67.36-81.83-109.01-182.945-104.36z m68.85 169.779c-30.935 39.94-92.155 59.45-151.62 27.25-28.285-15.36-27.235-45.5-27.235-45.5s-11.76-95.19 89.87-107.07c101.74-11.809 119.92 85.38 88.985 125.32z m-116.31-50.65c-18.99 1.97-32.565 18.53-32.565 34.33 0 15.87 15.27 26.81 34.26 24.58 18.885-2.14 34.265-16.74 34.265-32.57 0-15.85-14.165-28.43-35.96-26.34z m48.14-13.08c-6.505 4.72-7.835 13.72-4.3 19.35 3.395 5.77 11.325 6.43 17.74 1.62 6.275-4.96 8.71-13.59 5.315-19.34-3.395-5.63-11.21-7.23-18.755-1.63zM511.999 0C231.394 0 3.91 227.484 3.91 508.089c0 280.609 227.484 508.089 508.089 508.089s508.089-227.479 508.089-508.089C1020.087 227.484 792.603 0 511.999 0z m226.849 653.338c-41.665 88.47-179 131.54-280.774 123.56-96.735-7.62-221.099-39.74-233.949-156.79 0 0-6.785-53.02 44.62-121.62 0 0 73.9-103.24 160.01-132.7 86.18-29.3 96.21 20.3 96.21 49.615-4.57 24.895-13.13 39.515 19.21 29.465 0 0 84.715-39.27 119.56-4.42 28.14 28.135 4.65 66.83 4.65 66.83s-11.655 12.93 12.355 17.58c24.073 4.791 99.743 39.861 58.108 128.48z m-83.525-244.419c-9.22 0-16.63-7.45-16.63-16.62 0-9.305 7.41-16.755 16.63-16.755 0 0 103.825-19.215 91.415 92.375 0 0.665-0.07 1.18-0.215 1.77-1.185 7.89-8.135 13.96-16.32 13.96-9.235 0-16.76-7.4-16.76-16.61 0 0 16.45-74.585-58.12-58.12z m175.54 89.24h-0.15c-2.73 18.88-12.115 20.4-23.275 20.4-13.345 0-24.15-8.41-24.15-21.76 0-11.58 4.79-23.35 4.79-23.35 1.42-4.865 12.73-35.18-7.445-80.43-36.92-62.02-111.295-62.945-120.075-59.4-8.85 3.46-21.94 5.23-21.94 5.23-13.425 0-24.21-10.95-24.21-24.23 0-11.17 7.47-20.61 17.65-23.48 0 0 0.215-0.38 0.585-0.45 0.74-0.145 1.48-0.91 2.29-0.975 10.34-1.98 47.27-9.235 83.155-0.83 64.245 15.005 152.415 77.11 112.775 209.275z" fill="#d81e06" p-id="1444"></path></svg>