<?xml version="1.0" standalone="no"?><!DOCTYPE svg PUBLIC "-//W3C//DTD SVG 1.1//EN" "http://www.w3.org/Graphics/SVG/1.1/DTD/svg11.dtd"><svg t="1510328375355" class="icon" style="" viewBox="0 0 1024 1024" version="1.1" xmlns="http://www.w3.org/2000/svg" p-id="4955" xmlns:xlink="http://www.w3.org/1999/xlink" width="200" height="200"><defs><style type="text/css"></style></defs><path d="M512 192C288.682 192 95.118 322.042 0 512c95.118 189.958 288.682 320 512 320 223.312 0 416.876-130.042 512-320-95.116-189.958-288.688-320-512-320z m252.45 169.704C824.612 400.078 875.592 451.478 913.884 512c-38.292 60.522-89.274 111.922-149.436 150.296C688.854 710.514 601.558 736 512 736c-89.56 0-176.858-25.486-252.452-73.704C199.39 623.924 148.41 572.524 110.116 512c38.292-60.524 89.274-111.924 149.434-150.296 3.918-2.5 7.876-4.922 11.86-7.3C261.45 381.732 256 411.226 256 442c0 141.382 114.616 256 256 256 141.382 0 256-114.618 256-256 0-30.774-5.452-60.268-15.408-87.598a481.379 481.379 0 0 1 11.858 7.302zM512 416c0 53.02-42.98 96-96 96s-96-42.98-96-96 42.98-96 96-96 96 42.982 96 96z" p-id="4956"></path></svg>