<?xml version="1.0" standalone="no"?><!DOCTYPE svg PUBLIC "-//W3C//DTD SVG 1.1//EN" "http://www.w3.org/Graphics/SVG/1.1/DTD/svg11.dtd"><svg t="1510560946167" class="icon" style="" viewBox="0 0 1024 1024" version="1.1" xmlns="http://www.w3.org/2000/svg" p-id="1868" xmlns:xlink="http://www.w3.org/1999/xlink" width="200" height="200"><defs><style type="text/css"></style></defs><path d="M-1712.610938 2480.036289-1712.610938 2480.036289-1712.610938 2480.036289Z" p-id="1869" fill="#e6e6e6"></path><path d="M994.463386 20.526336c-34.115439-29.851009-86.354706-26.652687-118.33793 6.396645l-364.608758 364.608758-365.674865-366.740973c-33.049332-33.049332-86.354706-33.049332-119.404038 0L25.371688 25.856873c-33.049332 33.049332-33.049332 86.354706 0 119.404038L391.046553 512.001883l-365.674865 366.740973c-33.049332 33.049332-33.049332 86.354706 0 119.404038l1.066107 1.066107c33.049332 33.049332 86.354706 33.049332 119.404038 0l365.674865-366.740973 364.608758 364.608758c31.983224 31.983224 84.222491 36.247654 118.33793 6.396645 37.313762-33.049332 38.379869-89.553028 4.26443-124.734575L631.986843 512.001883l366.740973-366.740973C1032.843255 110.079364 1031.777147 53.575668 994.463386 20.526336L994.463386 20.526336z" p-id="1870" fill="#e6e6e6"></path></svg>