<?xml version="1.0" standalone="no"?><!DOCTYPE svg PUBLIC "-//W3C//DTD SVG 1.1//EN" "http://www.w3.org/Graphics/SVG/1.1/DTD/svg11.dtd"><svg t="1510215415451" class="icon" style="" viewBox="0 0 1024 1024" version="1.1" xmlns="http://www.w3.org/2000/svg" p-id="4051" xmlns:xlink="http://www.w3.org/1999/xlink" width="200" height="200"><defs><style type="text/css"></style></defs><path d="M445 628.7c-12.3 15.6-9.5 38.3 6.1 50.5 6.6 5.2 14.4 7.7 22.2 7.7 10.7 0 21.3-4.7 28.4-13.8l108.7-138.8c4.9-6.2 7.4-13.7 7.6-21.3v-1.1-1c-0.2-7.6-2.8-15.1-7.6-21.3L501.7 350.8c-12.3-15.6-34.9-18.4-50.5-6.1-15.6 12.3-18.4 34.9-6.1 50.5l62.9 80.6H100c-19.9 0-36 16.1-36 36v0.4c0 19.9 16.1 36 36 36h408l-63 80.5z" p-id="4052" fill="#e0e4cc"></path><path d="M924.6 337.6c-22.7-53.3-55-101.2-96.3-142.4-41.3-41.1-89.4-73.4-142.9-96C629.9 75.9 571 64 510.3 64S390.6 75.9 335.2 99.2c-53.5 22.6-101.6 54.8-142.8 96-14.1 14-14.1 36.7 0 50.8 14 14.1 36.9 14.1 51 0 71.3-71 166.1-110.1 267-110.1S706.1 175 777.4 246s110.4 165.6 110.4 266-39.2 194.9-110.6 265.9C706 848.9 611.1 888 510.3 888c-52.3 0-102.9-10.4-150.4-31-45.9-19.9-86.8-48.2-121.7-84.3-13.8-14.3-36.7-14.7-51.1-0.9-14.4 13.8-14.8 36.5-1 50.8 41.5 42.9 90.3 76.7 145 100.3 56.6 24.6 116.9 36.9 179.1 36.9 60.7 0 119.7-11.9 175.1-35.2 53.5-22.6 101.6-54.8 142.9-96 41.3-41.1 73.7-89.1 96.3-142.4C948.1 631.1 960 572.5 960 512s-11.8-119.1-35.4-174.4z" p-id="4053" fill="#e0e4cc"></path></svg>