<?xml version="1.0" standalone="no"?><!DOCTYPE svg PUBLIC "-//W3C//DTD SVG 1.1//EN" "http://www.w3.org/Graphics/SVG/1.1/DTD/svg11.dtd"><svg t="1510215557240" class="icon" style="" viewBox="0 0 1024 1024" version="1.1" xmlns="http://www.w3.org/2000/svg" p-id="6036" xmlns:xlink="http://www.w3.org/1999/xlink" width="200" height="200"><defs><style type="text/css"></style></defs><path d="M0 0" p-id="6037" fill="#e0e4cc"></path><path d="M64 704h192l210.744 210.744c40.32 40.32 109.256 11.76 109.256-45.256V154.504c0-57.016-68.936-85.576-109.256-45.256L256 319.992H64a64 64 0 0 0-64 64v256a64 64 0 0 0 64 64zM828.784 195.216C909.848 276.288 960 388.288 960 512s-50.152 235.712-131.216 316.784l45.256 45.256C966.688 781.384 1024 653.384 1024 512s-57.304-269.384-149.96-362.04l-45.256 45.256z" p-id="6038" fill="#e0e4cc"></path><path d="M738.272 738.272C796.176 680.36 832 600.36 832 511.992s-35.816-168.36-93.728-226.28l-45.256 45.256C739.344 377.296 768 441.296 768 511.984s-28.648 134.696-74.984 181.016l45.256 45.256z" p-id="6039" fill="#e0e4cc"></path></svg>