<?xml version="1.0" standalone="no"?><!DOCTYPE svg PUBLIC "-//W3C//DTD SVG 1.1//EN" "http://www.w3.org/Graphics/SVG/1.1/DTD/svg11.dtd"><svg t="1510236702053" class="icon" style="" viewBox="0 0 1024 1024" version="1.1" xmlns="http://www.w3.org/2000/svg" p-id="6669" xmlns:xlink="http://www.w3.org/1999/xlink" width="200" height="200"><defs><style type="text/css"></style></defs><path d="M330.608 314.336 330.608 314.336c-16-10.832-42.608-5.408-53.664 11.056-25.184 36.72 18.592 79.792 56.016 55.312C356.032 365.648 354.624 330.576 330.608 314.336z" p-id="6670" fill="#3b636e"></path><path d="M489.248 385.424c44.256 16.96 73.92-44.48 34.368-71.088-10.128-6.832-28.48-7.296-40.256-0.944C453.488 329.168 457.248 373.184 489.248 385.424z" p-id="6671" fill="#3b636e"></path><path d="M606.48 517.008c-26.128-16.944-58.608 9.424-46.848 37.888 10.368 24.72 48.736 22.832 57.664-2.816C621.536 540.064 616.352 523.6 606.48 517.008z" p-id="6672" fill="#3b636e"></path><path d="M715.936 528.064c-14.368 27.072 14.832 55.312 42.608 41.2 18.128-9.408 20.72-34.608 5.184-49.424C749.584 506.416 725.344 510.64 715.936 528.064z" p-id="6673" fill="#3b636e"></path><path d="M512 0C229.232 0 0 229.232 0 512s229.232 512 512 512 512-229.232 512-512S794.768 0 512 0zM405.936 669.056c-21.648 0-54.144-4.464-79.552-10.832l-24.256-5.888-91.328 48.96 12.704-37.904c14.832-44.256 14.832-43.536 4.944-49.904C48.16 496.288 123.712 240.192 350.384 199.712c145.232-25.888 293.28 53.44 328.352 176.064l4.48 15.536-21.648 0c-159.824 0-282.704 129.696-247.152 260.576l4.464 17.184L405.936 669.072zM819.264 752.608c-15.776 11.296-15.536 8.704-3.76 44.96 5.184 16.24 9.184 30.368 8.704 31.536-0.464 0.944-17.424-7.056-37.664-18.128l-36.72-19.776-17.424 4.704c-147.584 40.496-301.28-49.888-307.168-181.008-4.48-97.92 73.44-183.12 185.712-203.6C840.912 369.648 996.736 625.28 819.264 752.608z" p-id="6674" fill="#3b636e"></path></svg>